<svg xmlns="http://www.w3.org/2000/svg" viewBox="0 0 448 512">
  <path fill="#ffffff"
    d="M380.9 97.1C339-3.5 234.7-32.7 136.1 9.3 37.5 51.2-11.7 155.5 30.2 254.1L0 352l100.3-28.6c94.4 51.6 214.2 16.8 265.8-77.6 32.5-59.4 36.8-130.1 14.8-186.7zM224 338.2c-17.7 0-35.1-4.6-50.7-13.3l-3.6-2-59.6 17 18.1-57.9-2.3-3.8c-10.6-17.4-16.2-37.5-16.2-58 0-61.3 49.9-111.2 111.2-111.2 29.7 0 57.6 11.6 78.6 32.6 21 21 32.6 48.9 32.6 78.6 0 61.3-49.9 111.2-111.2 111.2zm61.2-82.7c-3.4-1.7-20.1-9.9-23.2-11-3.1-1.2-5.4-1.7-7.6 1.7-2.3 3.4-8.7 11-10.7 13.3-2 2.3-3.9 2.6-7.3.9-3.4-1.7-14.3-5.3-27.2-16.8-10.1-9-16.9-20.1-18.9-23.5-2-3.4-.2-5.3 1.5-7 1.5-1.5 3.4-3.9 5.1-5.9 1.7-2 2.3-3.4 3.4-5.6 1.1-2.3.6-4.2-.3-5.9-.9-1.7-7.6-18.3-10.4-25.1-2.7-6.5-5.5-5.6-7.6-5.7h-6.5c-2.3 0-5.9.9-9 4.2-3.1 3.4-11.8 11.6-11.8 28.3s12.1 32.9 13.8 35.2c1.7 2.3 23.8 36.3 57.7 50.9 8.1 3.5 14.4 5.6 19.3 7.2 8.1 2.6 15.5 2.2 21.3 1.3 6.5-1 20.1-8.2 22.9-16.1 2.8-7.9 2.8-14.7 2-16.1-.8-1.4-3.1-2.3-6.5-3.9z"/>
</svg>
